<svg width="20" height="20" viewBox="0 0 20 20" fill="none" xmlns="http://www.w3.org/2000/svg">
<path d="M0.94978 -0.0941696H19.05C19.35 -0.0941696 19.6378 0.0158491 19.8499 0.211683C20.0622 0.407517 20.1813 0.673126 20.1813 0.950082V19.0499C20.1813 19.3268 20.0622 19.5925 19.8499 19.7883C19.6378 19.9842 19.35 20.0942 19.05 20.0942H0.94978C0.649749 20.0942 0.362006 19.9842 0.149852 19.7883C-0.0623012 19.5925 -0.181488 19.3268 -0.181488 19.0499V0.950082C-0.181488 0.673126 -0.0623012 0.407517 0.149852 0.211683C0.362006 0.0158491 0.649749 -0.0941696 0.94978 -0.0941696ZM8.86865 8.08928C8.86865 8.54951 8.49555 8.92261 8.03531 8.92261H5.59139C5.13115 8.92261 4.75805 9.29571 4.75805 9.75594V10.1778C4.75805 10.638 5.13115 11.0111 5.59139 11.0111H8.03531C8.49555 11.0111 8.86865 11.3842 8.86865 11.8444V14.3548C8.86865 14.815 9.24174 15.1881 9.70198 15.1881H10.2979C10.7581 15.1881 11.1312 14.815 11.1312 14.3548V11.8444C11.1312 11.3842 11.5043 11.0111 11.9645 11.0111H14.4085C14.8687 11.0111 15.2418 10.638 15.2418 10.1778V9.75594C15.2418 9.2957 14.8687 8.92261 14.4085 8.92261H11.9645C11.5043 8.92261 11.1312 8.54951 11.1312 8.08928V5.57897C11.1312 5.11873 10.7581 4.74563 10.2979 4.74563H9.70198C9.24174 4.74563 8.86865 5.11873 8.86865 5.57897V8.08928Z" fill="white" fill-opacity="0.12"/>
</svg>
