<svg width="15" height="15" viewBox="0 0 15 15" fill="none" xmlns="http://www.w3.org/2000/svg">
<path fill-rule="evenodd" clip-rule="evenodd" d="M10.7668 12.2818C9.38453 13.283 7.67577 13.7265 5.98108 13.5241C4.28638 13.3216 2.7302 12.488 1.6227 11.1894C0.515198 9.8908 -0.0622906 8.22254 0.00533318 6.51713C0.0729569 4.81173 0.780727 3.19443 1.98758 1.98758C3.19443 0.780727 4.81173 0.0729569 6.51713 0.00533318C8.22254 -0.0622906 9.8908 0.515198 11.1894 1.6227C12.488 2.7302 13.3216 4.28638 13.5241 5.98108C13.7265 7.67577 13.283 9.38453 12.2818 10.7668L14.6858 13.1708C14.8867 13.3717 14.9995 13.6441 14.9995 13.9283C14.9995 14.2124 14.8867 14.4849 14.6858 14.6858C14.4849 14.8867 14.2124 14.9995 13.9283 14.9995C13.6441 14.9995 13.3717 14.8867 13.1708 14.6858L10.7668 12.2818ZM2.14276 6.78576C2.14271 6.02686 2.32867 5.27951 2.68439 4.60913C3.04011 3.93876 3.55473 3.3658 4.1832 2.9404C4.81167 2.51501 5.53484 2.25016 6.28939 2.16902C7.04395 2.08789 7.80689 2.19295 8.51143 2.47502C9.21597 2.75708 9.84063 3.20754 10.3307 3.78697C10.8208 4.3664 11.1614 5.05713 11.3227 5.7987C11.484 6.54027 11.461 7.31007 11.2558 8.04071C11.0507 8.77136 10.6695 9.44057 10.1458 9.98976C10.0882 10.0363 10.0356 10.0885 9.98876 10.1458C9.33099 10.7729 8.5036 11.1933 7.60919 11.3547C6.71477 11.516 5.79266 11.4114 4.95717 11.0536C4.12169 10.6959 3.40957 10.1008 2.9091 9.34212C2.40863 8.58347 2.14283 7.69462 2.14276 6.78576Z" fill="white"/>
</svg>
