<svg width="16" height="16" viewBox="0 0 16 16" fill="none" xmlns="http://www.w3.org/2000/svg">
<path d="M3.87291 3.33179H7.74658L5.83783 1.51827C5.57818 1.27158 5.15011 1.27158 4.89046 1.51827L3.89397 2.46503C3.64134 2.70506 3.63432 3.0851 3.87291 3.33179ZM14.6663 4.66553V5.33226C14.6663 6.06568 14.2944 6.66574 13.2628 6.66574H2.73652C1.66283 6.66574 1.33301 6.06568 1.33301 5.33226V4.66553C1.33301 3.93212 1.66283 3.33206 2.73652 3.33206H13.2628C14.2944 3.33206 14.6663 3.93212 14.6663 4.66553ZM13.6134 7.99925V11.9997C13.6134 13.4732 12.3573 14.6666 10.8064 14.6666H5.19237C3.64149 14.6666 2.38535 13.4732 2.38535 11.9997V7.99925C2.38535 7.63252 2.70114 7.33252 3.0871 7.33252H4.46956C4.85552 7.33252 5.17131 7.63252 5.17131 7.99925V10.0928C5.17131 10.5861 5.45903 11.0396 5.91517 11.2729C6.11869 11.3796 6.34324 11.4329 6.57483 11.4329C6.84149 11.4329 7.10816 11.3596 7.33974 11.2129L8.0064 10.7995L8.62392 11.1929C9.05198 11.4662 9.59937 11.4996 10.0556 11.2663C10.5186 11.0329 10.8064 10.5861 10.8064 10.0861V7.99925C10.8064 7.63252 11.1222 7.33252 11.5082 7.33252H12.9117C13.2976 7.33252 13.6134 7.63252 13.6134 7.99925ZM12.1183 3.33179H8.24458L10.1533 1.51827C10.413 1.27158 10.8411 1.27158 11.1007 1.51827L12.0972 2.46503C12.3499 2.70506 12.3569 3.0851 12.1183 3.33179ZM10.0847 7.99925C10.0847 7.63252 9.76889 7.33252 9.38289 7.33252H6.55483C6.16889 7.33252 5.8531 7.63252 5.8531 7.99925V10.0995C5.8531 10.6262 6.47064 10.9462 6.9338 10.6528L7.59343 10.2395C7.83204 10.0928 8.1338 10.0928 8.36537 10.2395L8.99695 10.6395C9.4601 10.9395 10.0847 10.6195 10.0847 10.0861V7.99925Z" fill="white"/>
</svg>
