<svg width="16" height="16" viewBox="0 0 16 16" fill="none" xmlns="http://www.w3.org/2000/svg">
<path d="M4.13364 3.09019C5.08367 2.24507 6.3086 1.66761 7.65769 1.58856V3.00076C6.68615 3.07528 5.80187 3.46064 5.10336 4.05992L4.13364 3.09019ZM8.34313 3.00076V1.58856C9.69226 1.66761 10.9172 2.24507 11.8672 3.09019L10.8975 4.05992C10.199 3.46064 9.31467 3.07528 8.34313 3.00076ZM3.55869 7.09921C3.63321 6.1277 4.01857 5.24341 4.61783 4.5449L3.64811 3.57518C2.80299 4.52521 2.22553 5.75014 2.14648 7.09921H3.55869ZM3.99528 9.39346C3.75482 8.90125 3.60265 8.35842 3.55869 7.78521H2.14648C2.18958 8.52071 2.3808 9.2193 2.68278 9.85657C2.99858 9.56712 3.42483 9.39346 3.88091 9.39346H3.99528ZM12.0047 9.39346H12.1194C12.5754 9.39346 13.0015 9.56706 13.3173 9.85635C13.6192 9.21913 13.8104 8.52065 13.8535 7.78521H12.4413C12.3973 8.35842 12.2451 8.90125 12.0047 9.39346ZM12.4413 7.09921C12.3668 6.1277 11.9814 5.24338 11.3821 4.5449L12.3518 3.57518C13.197 4.52521 13.7744 5.75014 13.8535 7.09921H12.4413ZM4.22728 7.44279C4.22728 5.36242 5.9198 3.6699 8.00016 3.6699C10.0806 3.6699 11.773 5.36242 11.773 7.44279C11.773 8.15638 11.5739 8.82432 11.2283 9.39402H8.28459C8.418 9.0317 8.6022 8.64397 8.84169 8.37843C8.85769 8.3607 8.87392 8.34359 8.89036 8.32698C9.27018 7.94465 9.96326 7.69177 10.4322 7.55541C10.5349 7.52552 10.5342 7.34289 10.4314 7.31373C9.96153 7.18055 9.26673 6.93235 8.88434 6.55258C8.50201 6.17278 8.24914 5.47967 8.11277 5.01075C8.08289 4.90806 7.90026 4.90868 7.8711 5.01156C7.73791 5.48139 7.48977 6.1762 7.10995 6.55857C6.73013 6.94094 6.03704 7.19382 5.56812 7.33018C5.46543 7.36001 5.46605 7.54264 5.56894 7.5718C6.03877 7.70504 6.73359 7.95318 7.11597 8.333C7.38067 8.59591 7.58332 9.00907 7.72821 9.39402H4.77204C4.42642 8.82432 4.22728 8.15638 4.22728 7.44279Z" fill="white"/>
<path fill-rule="evenodd" clip-rule="evenodd" d="M3.88091 9.95151C3.23091 9.95151 2.70398 10.4507 2.70398 11.0665V13.2965C2.70398 13.9122 3.23091 14.4115 3.88091 14.4115H12.1194C12.7694 14.4115 13.2963 13.9122 13.2963 13.2965V11.0665C13.2963 10.4507 12.7694 9.95151 12.1194 9.95151H3.88091ZM4.37646 11.0665V13.2806H6.07732V12.7429H4.99553V11.0665H4.37646ZM6.35562 11.0665V13.2806H6.97788V11.0665H6.35562ZM8.11439 13.2965L7.20813 11.0665H7.90059L8.40796 12.4678L8.91534 11.0665H9.59509L8.68877 13.2965H8.11439ZM9.81129 11.0665V13.2806H11.6239V12.7587H10.424V12.4077H11.4962V11.9237H10.424V11.5884H11.6079V11.0665H9.81129Z" fill="white"/>
</svg>
