<svg width="16" height="16" viewBox="0 0 16 16" fill="none" xmlns="http://www.w3.org/2000/svg">
<path d="M7.99985 14.3704C7.10927 14.3703 6.23926 14.1027 5.50262 13.6022C4.76596 13.1018 4.19665 12.3915 3.8685 11.5636C3.54035 10.7357 3.46849 9.82829 3.66224 8.95905C3.85599 8.0898 4.30642 7.29882 4.95511 6.68863C5.75038 5.94018 7.70356 4.59263 7.40726 1.62967C10.9628 4.00004 12.7406 6.37041 9.18504 9.92596C9.77763 9.92596 10.6665 9.92596 12.148 8.46226C12.308 8.92034 12.4443 9.41278 12.4443 9.92596C12.4443 11.1047 11.976 12.2352 11.1426 13.0687C10.3091 13.9022 9.17859 14.3704 7.99985 14.3704Z" fill="white"/>
</svg>
