<svg width="20" height="20" viewBox="0 0 20 20" fill="none" xmlns="http://www.w3.org/2000/svg">
<mask id="mask0_1_162" style="mask-type:luminance" maskUnits="userSpaceOnUse" x="5" y="3" width="10" height="14">
<path d="M14.9093 3H5.09088V17H14.9093V3Z" fill="white"/>
</mask>
<g mask="url(#mask0_1_162)">
<path d="M5.09118 12.0909C5.0642 9.41452 7.2463 7.21304 9.91722 7.17636C12.7026 7.13812 14.8787 9.36868 14.9091 12.0202C14.9413 14.8276 12.6662 16.9672 10.0621 16.9995C7.31834 17.0338 5.06106 14.7841 5.09118 12.0909ZM5.57397 12.0812C5.55118 14.5122 7.54466 16.4727 9.90334 16.5151C12.4152 16.5604 14.4051 14.5428 14.4249 12.1315C14.4454 9.64872 12.4419 7.6644 10.0026 7.65916C7.53814 7.65392 5.5517 9.68512 5.57397 12.0812Z" fill="#F29200"/>
<path d="M7.12621 7.3786C6.78621 6.45652 6.26125 5.69056 5.43423 5.15119C5.84446 5.1656 6.21069 5.30836 6.54677 5.5284C6.88129 5.7474 7.14665 6.03792 7.36749 6.37896C7.16157 5.25964 6.98425 4.14292 7.06569 3C7.43061 3.43799 7.72505 3.91973 7.98229 4.42216C8.23925 4.9246 8.47241 5.43934 8.72597 5.95434C8.71601 5.55276 8.77285 5.16245 8.92401 4.78733C9.07621 4.40932 9.31409 4.09838 9.63025 3.84114C9.23969 4.75956 9.25593 5.69789 9.48277 6.66112C8.63481 6.70408 7.85573 6.9466 7.12621 7.3786Z" fill="#F29200"/>
<path d="M10.7345 8.39393C11.4067 8.42485 11.9222 8.67081 12.2536 9.24293C12.383 9.46637 12.417 9.86193 12.2156 10.0728C12.0849 10.2098 11.9209 10.2768 11.7433 10.3167C11.2888 10.4186 10.8558 10.3471 10.4571 10.115C10.1509 9.93657 9.92507 9.67645 9.83519 9.32569C9.72543 8.89793 9.94627 8.54401 10.3767 8.44421C10.5029 8.41489 10.6347 8.40757 10.7345 8.39393Z" fill="#F29200"/>
</g>
</svg>
