<svg width="12" height="12" viewBox="0 0 12 12" fill="none" xmlns="http://www.w3.org/2000/svg">
<path d="M5.99982 1.4995C6.09139 1.49957 6.16605 1.52092 6.20782 1.5454L10.2879 3.93896C10.3305 3.96401 10.3868 4.02033 10.4334 4.10204C10.4799 4.18366 10.4998 4.26159 10.4998 4.312V10.0708C10.4996 10.3096 10.3062 10.5005 10.0799 10.5005H7.74493C7.64552 10.5005 7.56525 10.4192 7.56525 10.3198V7.69286C7.56507 7.46106 7.37619 7.27294 7.14435 7.27294H4.85529C4.62344 7.27294 4.43555 7.46106 4.43536 7.69286V10.3198C4.43536 10.4191 4.35488 10.5002 4.25568 10.5005H1.91974C1.69321 10.5003 1.50003 10.3104 1.49982 10.0708V4.312C1.49982 4.19554 1.54604 4.08658 1.62384 4.00732L1.71075 3.93896L5.79083 1.5454C5.83264 1.52085 5.90796 1.4995 5.99982 1.4995Z" stroke="white" stroke-width="0.6"/>
</svg>
