<svg width="16" height="16" viewBox="0 0 16 16" fill="none" xmlns="http://www.w3.org/2000/svg">
<path d="M3.63454 3.08591C4.70723 2.13166 6.09032 1.47965 7.6136 1.3904V2.98493C6.51661 3.06908 5.51816 3.50419 4.72947 4.18083L3.63454 3.08591ZM8.38753 2.98493V1.3904C9.91086 1.47965 11.2939 2.13166 12.3666 3.08591L11.2717 4.18083C10.483 3.50419 9.48452 3.06908 8.38753 2.98493ZM2.98535 7.61255C3.06949 6.51561 3.50461 5.51714 4.18125 4.72844L3.08632 3.63351C2.13208 4.70621 1.48006 6.0893 1.39081 7.61255H2.98535ZM8.38753 13.015C9.48452 12.9309 10.483 12.4958 11.2717 11.8191L12.3666 12.914C11.2939 13.8683 9.91086 14.5203 8.38753 14.6096V13.015ZM11.8189 11.2713L12.9138 12.3662C13.8681 11.2935 14.5201 9.91045 14.6094 8.38712H13.0149C12.9307 9.48411 12.4955 10.4826 11.8189 11.2713ZM13.0149 7.61255C12.9307 6.51561 12.4955 5.51711 11.8189 4.72844L12.9138 3.63351C13.8681 4.70621 14.5201 6.0893 14.6094 7.61255H13.0149ZM4.18125 11.2713C3.50461 10.4826 3.06949 9.48411 2.98535 8.38712H1.39081C1.48006 9.91045 2.13208 11.2935 3.08632 12.3662L4.18125 11.2713ZM7.6124 14.6096C6.08909 14.5203 4.70601 13.8683 3.63331 12.914L4.72823 11.8191C5.51693 12.4958 6.51542 12.9309 7.6124 13.015V14.6096Z" fill="white"/>
<path fill-rule="evenodd" clip-rule="evenodd" d="M3.74027 7.99974C3.74027 5.65075 5.65131 3.73971 8.00028 3.73971C10.3493 3.73971 12.2603 5.65075 12.2603 7.99974C12.2603 10.3487 10.3493 12.2598 8.00028 12.2598C5.65131 12.2598 3.74027 10.3487 3.74027 7.99974ZM8.12743 5.25367C8.09791 5.15222 7.93639 5.14007 7.87439 5.21644C7.86551 5.22735 7.85871 5.24007 7.85456 5.25459C7.70418 5.78509 7.424 6.5696 6.99514 7.00134C6.56628 7.43309 5.7837 7.71856 5.25423 7.87259C5.15278 7.90205 5.14063 8.06363 5.21701 8.12564C5.22792 8.13445 5.24064 8.14131 5.25516 8.1454C5.78565 8.29578 6.57018 8.57603 7.00194 9.00489C7.43363 9.43368 7.71916 10.2163 7.87313 10.7458C7.90687 10.8617 8.11308 10.861 8.146 10.7448C8.29639 10.2144 8.57656 9.42984 9.00542 8.99809C9.43429 8.56633 10.2168 8.28087 10.7463 8.1269C10.8622 8.09316 10.8616 7.88694 10.7454 7.85402C10.2149 7.70364 9.43038 7.4234 8.99863 6.99457C8.56693 6.56574 8.2814 5.78313 8.12743 5.25367Z" fill="white"/>
</svg>
