<svg width="16" height="16" viewBox="0 0 16 16" fill="none" xmlns="http://www.w3.org/2000/svg">
<path fill-rule="evenodd" clip-rule="evenodd" d="M13.7629 2.24626C13.7794 2.26316 13.7908 2.28442 13.7956 2.30755L13.7945 2.30811C14.1631 3.91498 12.8368 7.37469 10.9142 9.28777C10.5739 9.62973 10.2044 9.9414 9.8099 10.2192C9.86065 10.8076 9.81603 11.3961 9.59628 11.8997C8.97439 13.3214 7.33907 13.7353 6.63798 13.8474C6.59957 13.8539 6.56018 13.8514 6.52289 13.8401C6.4856 13.8288 6.45142 13.8091 6.42306 13.7824C6.39468 13.7557 6.37289 13.7228 6.35937 13.6863C6.34586 13.6498 6.34099 13.6106 6.34516 13.5718L6.59559 11.2918C6.42436 11.2901 6.25369 11.2795 6.08358 11.2605C5.96478 11.2494 5.85378 11.1964 5.76956 11.1116L4.88665 10.2298C4.80151 10.1461 4.74859 10.0352 4.73717 9.91635C4.7183 9.74518 4.70806 9.57317 4.7065 9.40099L2.42363 9.6531C2.38486 9.65733 2.34562 9.65259 2.30901 9.6391C2.2724 9.6256 2.23942 9.60385 2.21266 9.57546C2.1859 9.54707 2.16608 9.51288 2.15479 9.47551C2.14349 9.4382 2.14101 9.39876 2.14754 9.36028C2.26356 8.65807 2.67685 7.02554 4.09855 6.39975C4.6022 6.18 5.19341 6.13649 5.78462 6.18893C6.06252 5.79556 6.37418 5.42716 6.71606 5.08792C8.63249 3.17094 12.1708 1.83793 13.7024 2.21217C13.7254 2.21753 13.7464 2.22936 13.7629 2.24626ZM8.71024 6.59762C8.77722 6.75105 8.87427 6.88956 8.99558 7.00491C9.23285 7.23057 9.54892 7.3545 9.87632 7.35032C10.2037 7.34619 10.5166 7.21423 10.748 6.9826C10.9795 6.751 11.1112 6.43811 11.1152 6.1107C11.1192 5.78328 10.995 5.46729 10.7692 5.23015C10.6538 5.1089 10.5152 5.01198 10.3617 4.94508C10.2083 4.8782 10.043 4.84269 9.87554 4.84067C9.70816 4.83864 9.54201 4.87013 9.38695 4.93329C9.2319 4.99645 9.09107 5.08999 8.97271 5.20842C8.85436 5.32684 8.76094 5.46775 8.69786 5.62284C8.63478 5.77793 8.60343 5.94407 8.60555 6.11148C8.60767 6.27889 8.64325 6.44418 8.71024 6.59762Z" fill="white"/>
<path d="M5.06072 11.9984C5.33681 11.9505 5.56716 11.8947 5.7105 11.7508C5.7858 11.6721 5.91854 11.7374 5.90906 11.8467C5.86722 12.1947 5.70946 12.5185 5.46119 12.7659C4.84655 13.3811 2.56257 13.4391 2.56257 13.4391C2.56257 13.4391 2.62057 11.1562 3.23521 10.541C3.48282 10.2934 3.80621 10.1357 4.15382 10.0932C4.17768 10.0899 4.20197 10.0942 4.22323 10.1055C4.24448 10.1169 4.26162 10.1346 4.27219 10.1562C4.28277 10.1779 4.28624 10.2023 4.2821 10.226C4.27798 10.2498 4.26646 10.2716 4.2492 10.2884C4.17056 10.367 4.0445 10.7005 4.00211 10.9387C3.89057 11.5673 4.43939 12.1044 5.06072 11.9984Z" fill="white"/>
<path fill-rule="evenodd" clip-rule="evenodd" d="M13.7629 2.24626C13.7794 2.26316 13.7908 2.28442 13.7956 2.30755L13.7945 2.30811C14.1631 3.91498 12.8368 7.37469 10.9142 9.28777C10.5739 9.62973 10.2044 9.9414 9.8099 10.2192C9.86065 10.8076 9.81603 11.3961 9.59628 11.8997C8.97439 13.3214 7.33907 13.7353 6.63798 13.8474C6.59957 13.8539 6.56018 13.8514 6.52289 13.8401C6.4856 13.8288 6.45142 13.8091 6.42306 13.7824C6.39468 13.7557 6.37289 13.7228 6.35937 13.6863C6.34586 13.6498 6.34099 13.6106 6.34516 13.5718L6.59559 11.2918C6.42436 11.2901 6.25369 11.2795 6.08358 11.2605C5.96478 11.2494 5.85378 11.1964 5.76956 11.1116L4.88665 10.2298C4.80151 10.1461 4.74859 10.0352 4.73717 9.91635C4.7183 9.74518 4.70806 9.57317 4.7065 9.40099L2.42363 9.6531C2.38486 9.65733 2.34562 9.65259 2.30901 9.6391C2.2724 9.6256 2.23942 9.60385 2.21266 9.57546C2.1859 9.54707 2.16608 9.51288 2.15479 9.47551C2.14349 9.4382 2.14101 9.39876 2.14754 9.36028C2.26356 8.65807 2.67685 7.02554 4.09855 6.39975C4.6022 6.18 5.19341 6.13649 5.78462 6.18893C6.06252 5.79556 6.37418 5.42716 6.71606 5.08792C8.63249 3.17094 12.1708 1.83793 13.7024 2.21217C13.7254 2.21753 13.7464 2.22936 13.7629 2.24626ZM8.71024 6.59762C8.77722 6.75105 8.87427 6.88956 8.99558 7.00491C9.23285 7.23057 9.54892 7.3545 9.87632 7.35032C10.2037 7.34619 10.5166 7.21423 10.748 6.9826C10.9795 6.751 11.1112 6.43811 11.1152 6.1107C11.1192 5.78328 10.995 5.46729 10.7692 5.23015C10.6538 5.1089 10.5152 5.01198 10.3617 4.94508C10.2083 4.8782 10.043 4.84269 9.87554 4.84067C9.70816 4.83864 9.54201 4.87013 9.38695 4.93329C9.2319 4.99645 9.09107 5.08999 8.97271 5.20842C8.85436 5.32684 8.76094 5.46775 8.69786 5.62284C8.63478 5.77793 8.60343 5.94407 8.60555 6.11148C8.60767 6.27889 8.64325 6.44418 8.71024 6.59762Z" fill="white"/>
<path d="M5.06072 11.9984C5.33681 11.9505 5.56716 11.8947 5.7105 11.7508C5.7858 11.6721 5.91854 11.7374 5.90906 11.8467C5.86722 12.1947 5.70946 12.5185 5.46119 12.7659C4.84655 13.3811 2.56257 13.4391 2.56257 13.4391C2.56257 13.4391 2.62057 11.1562 3.23521 10.541C3.48282 10.2934 3.80621 10.1357 4.15382 10.0932C4.17768 10.0899 4.20197 10.0942 4.22323 10.1055C4.24448 10.1169 4.26162 10.1346 4.27219 10.1562C4.28277 10.1779 4.28624 10.2023 4.2821 10.226C4.27798 10.2498 4.26646 10.2716 4.2492 10.2884C4.17056 10.367 4.0445 10.7005 4.00211 10.9387C3.89057 11.5673 4.43939 12.1044 5.06072 11.9984Z" fill="white"/>
<path fill-rule="evenodd" clip-rule="evenodd" d="M13.7629 2.24626C13.7794 2.26316 13.7908 2.28442 13.7956 2.30755L13.7945 2.30811C14.1631 3.91498 12.8368 7.37469 10.9142 9.28777C10.5739 9.62973 10.2044 9.9414 9.8099 10.2192C9.86065 10.8076 9.81603 11.3961 9.59628 11.8997C8.97439 13.3214 7.33907 13.7353 6.63798 13.8474C6.59957 13.8539 6.56018 13.8514 6.52289 13.8401C6.4856 13.8288 6.45142 13.8091 6.42306 13.7824C6.39468 13.7557 6.37289 13.7228 6.35937 13.6863C6.34586 13.6498 6.34099 13.6106 6.34516 13.5718L6.59559 11.2918C6.42436 11.2901 6.25369 11.2795 6.08358 11.2605C5.96478 11.2494 5.85378 11.1964 5.76956 11.1116L4.88665 10.2298C4.80151 10.1461 4.74859 10.0352 4.73717 9.91635C4.7183 9.74518 4.70806 9.57317 4.7065 9.40099L2.42363 9.6531C2.38486 9.65733 2.34562 9.65259 2.30901 9.6391C2.2724 9.6256 2.23942 9.60385 2.21266 9.57546C2.1859 9.54707 2.16608 9.51288 2.15479 9.47551C2.14349 9.4382 2.14101 9.39876 2.14754 9.36028C2.26356 8.65807 2.67685 7.02554 4.09855 6.39975C4.6022 6.18 5.19341 6.13649 5.78462 6.18893C6.06252 5.79556 6.37418 5.42716 6.71606 5.08792C8.63249 3.17094 12.1708 1.83793 13.7024 2.21217C13.7254 2.21753 13.7464 2.22936 13.7629 2.24626ZM8.71024 6.59762C8.77722 6.75105 8.87427 6.88956 8.99558 7.00491C9.23285 7.23057 9.54892 7.3545 9.87632 7.35032C10.2037 7.34619 10.5166 7.21423 10.748 6.9826C10.9795 6.751 11.1112 6.43811 11.1152 6.1107C11.1192 5.78328 10.995 5.46729 10.7692 5.23015C10.6538 5.1089 10.5152 5.01198 10.3617 4.94508C10.2083 4.8782 10.043 4.84269 9.87554 4.84067C9.70816 4.83864 9.54201 4.87013 9.38695 4.93329C9.2319 4.99645 9.09107 5.08999 8.97271 5.20842C8.85436 5.32684 8.76094 5.46775 8.69786 5.62284C8.63478 5.77793 8.60343 5.94407 8.60555 6.11148C8.60767 6.27889 8.64325 6.44418 8.71024 6.59762Z" fill="white"/>
<path d="M5.06072 11.9984C5.33681 11.9505 5.56716 11.8947 5.7105 11.7508C5.7858 11.6721 5.91854 11.7374 5.90906 11.8467C5.86722 12.1947 5.70946 12.5185 5.46119 12.7659C4.84655 13.3811 2.56257 13.4391 2.56257 13.4391C2.56257 13.4391 2.62057 11.1562 3.23521 10.541C3.48282 10.2934 3.80621 10.1357 4.15382 10.0932C4.17768 10.0899 4.20197 10.0942 4.22323 10.1055C4.24448 10.1169 4.26162 10.1346 4.27219 10.1562C4.28277 10.1779 4.28624 10.2023 4.2821 10.226C4.27798 10.2498 4.26646 10.2716 4.2492 10.2884C4.17056 10.367 4.0445 10.7005 4.00211 10.9387C3.89057 11.5673 4.43939 12.1044 5.06072 11.9984Z" fill="white"/>
</svg>
