<svg width="16" height="16" viewBox="0 0 16 16" fill="none" xmlns="http://www.w3.org/2000/svg">
<path fill-rule="evenodd" clip-rule="evenodd" d="M1.13379 7.42783C1.13379 6.58068 1.59405 5.84102 2.27816 5.44528V6.28347C2.27816 7.23149 3.04669 8.00002 3.99471 8.00002H12.0053C12.9533 8.00002 13.7218 7.23149 13.7218 6.28347V5.44528C14.4059 5.84102 14.8662 6.58068 14.8662 7.42783V8.5722C14.8662 11.1003 12.8168 13.1497 10.2887 13.1497H5.71126C3.18319 13.1497 1.13379 11.1003 1.13379 8.5722V7.42783ZM4.56689 11.4331C5.19891 11.4331 5.71126 10.9207 5.71126 10.2888C5.71126 9.65672 5.19891 9.14438 4.56689 9.14438C3.93488 9.14438 3.42253 9.65672 3.42253 10.2888C3.42253 10.9207 3.93488 11.4331 4.56689 11.4331ZM11.4331 11.4331C12.0651 11.4331 12.5775 10.9207 12.5775 10.2888C12.5775 9.65672 12.0651 9.14438 11.4331 9.14438C10.8011 9.14438 10.2887 9.65672 10.2887 10.2888C10.2887 10.9207 10.8011 11.4331 11.4331 11.4331ZM9.14437 10.2888C9.14437 10.9207 8.63203 11.4331 8 11.4331C7.36797 11.4331 6.85563 10.9207 6.85563 10.2888C6.85563 9.65672 7.36797 9.14438 8 9.14438C8.63203 9.14438 9.14437 9.65672 9.14437 10.2888Z" fill="white"/>
<path fill-rule="evenodd" clip-rule="evenodd" d="M1.13379 7.42783C1.13379 6.58068 1.59405 5.84102 2.27816 5.44528V6.28347C2.27816 7.23149 3.04669 8.00002 3.99471 8.00002H12.0053C12.9533 8.00002 13.7218 7.23149 13.7218 6.28347V5.44528C14.4059 5.84102 14.8662 6.58068 14.8662 7.42783V8.5722C14.8662 11.1003 12.8168 13.1497 10.2887 13.1497H5.71126C3.18319 13.1497 1.13379 11.1003 1.13379 8.5722V7.42783ZM4.56689 11.4331C5.19891 11.4331 5.71126 10.9207 5.71126 10.2888C5.71126 9.65672 5.19891 9.14438 4.56689 9.14438C3.93488 9.14438 3.42253 9.65672 3.42253 10.2888C3.42253 10.9207 3.93488 11.4331 4.56689 11.4331ZM11.4331 11.4331C12.0651 11.4331 12.5775 10.9207 12.5775 10.2888C12.5775 9.65672 12.0651 9.14438 11.4331 9.14438C10.8011 9.14438 10.2887 9.65672 10.2887 10.2888C10.2887 10.9207 10.8011 11.4331 11.4331 11.4331ZM9.14437 10.2888C9.14437 10.9207 8.63203 11.4331 8 11.4331C7.36797 11.4331 6.85563 10.9207 6.85563 10.2888C6.85563 9.65672 7.36797 9.14438 8 9.14438C8.63203 9.14438 9.14437 9.65672 9.14437 10.2888Z" fill="white"/>
<path fill-rule="evenodd" clip-rule="evenodd" d="M1.13379 7.42783C1.13379 6.58068 1.59405 5.84102 2.27816 5.44528V6.28347C2.27816 7.23149 3.04669 8.00002 3.99471 8.00002H12.0053C12.9533 8.00002 13.7218 7.23149 13.7218 6.28347V5.44528C14.4059 5.84102 14.8662 6.58068 14.8662 7.42783V8.5722C14.8662 11.1003 12.8168 13.1497 10.2887 13.1497H5.71126C3.18319 13.1497 1.13379 11.1003 1.13379 8.5722V7.42783ZM4.56689 11.4331C5.19891 11.4331 5.71126 10.9207 5.71126 10.2888C5.71126 9.65672 5.19891 9.14438 4.56689 9.14438C3.93488 9.14438 3.42253 9.65672 3.42253 10.2888C3.42253 10.9207 3.93488 11.4331 4.56689 11.4331ZM11.4331 11.4331C12.0651 11.4331 12.5775 10.9207 12.5775 10.2888C12.5775 9.65672 12.0651 9.14438 11.4331 9.14438C10.8011 9.14438 10.2887 9.65672 10.2887 10.2888C10.2887 10.9207 10.8011 11.4331 11.4331 11.4331ZM9.14437 10.2888C9.14437 10.9207 8.63203 11.4331 8 11.4331C7.36797 11.4331 6.85563 10.9207 6.85563 10.2888C6.85563 9.65672 7.36797 9.14438 8 9.14438C8.63203 9.14438 9.14437 9.65672 9.14437 10.2888Z" fill="white"/>
<path fill-rule="evenodd" clip-rule="evenodd" d="M2.85034 3.99471C2.85034 3.36269 3.36269 2.85034 3.99471 2.85034H12.0053C12.6373 2.85034 13.1497 3.36269 13.1497 3.99471V6.28345C13.1497 6.91547 12.6373 7.42782 12.0053 7.42782H3.99471C3.36269 7.42782 2.85034 6.91547 2.85034 6.28345V3.99471ZM10.4312 6.25323H11.0352L11.6691 4.03961H11.0252L10.6934 5.51646L10.315 4.03961H9.87695L9.49861 5.51646L9.16341 4.03961H8.52289L9.15677 6.25323H9.76079L10.096 4.86599L10.4312 6.25323ZM8.41049 6.25323H6.78762V4.03961H8.41049V4.53743H7.35844V4.88258H8.38726V5.38039H7.35844V5.75542H8.41049V6.25323ZM5.83767 6.25323H6.38859V4.03961H5.81444V5.2576L4.91837 4.03961H4.33095V6.25323H4.90178V4.97219L5.83767 6.25323Z" fill="white"/>
</svg>
