<svg width="16" height="16" viewBox="0 0 16 16" fill="none" xmlns="http://www.w3.org/2000/svg">
<path d="M2 8C2 8.36816 2.29848 8.66664 2.66666 8.66664H6.66666C7.03486 8.66664 7.33334 8.36816 7.33334 8V2.66666C7.33334 2.29848 7.03486 2 6.66666 2H2.66666C2.29848 2 2 2.29848 2 2.66666V8ZM2 13.3334C2 13.7015 2.29848 14 2.66666 14H6.66666C7.03486 14 7.33334 13.7015 7.33334 13.3334V10.6666C7.33334 10.2985 7.03486 10 6.66666 10H2.66666C2.29848 10 2 10.2985 2 10.6666V13.3334ZM8.66664 13.3334C8.66664 13.7015 8.96512 14 9.33336 14H13.3334C13.7015 14 14 13.7015 14 13.3334V8C14 7.6318 13.7015 7.33334 13.3334 7.33334H9.33336C8.96512 7.33334 8.66664 7.6318 8.66664 8V13.3334ZM9.33336 2C8.96512 2 8.66664 2.29848 8.66664 2.66666V5.33334C8.66664 5.70152 8.96512 6 9.33336 6H13.3334C13.7015 6 14 5.70152 14 5.33334V2.66666C14 2.29848 13.7015 2 13.3334 2H9.33336Z" fill="white"/>
</svg>
